<mxfile host="app.diagrams.net" modified="2022-10-07T08:07:41.079Z" agent="5.0 (Windows NT 10.0; Win64; x64) AppleWebKit/537.36 (KHTML, like Gecko) Chrome/105.0.0.0 Safari/537.36" etag="yb-mSASfma8hBhl2fDBF" version="20.4.0" type="github">
  <diagram id="R2lEEEUBdFMjLlhIrx00" name="Page-1">
    <mxGraphModel dx="827" dy="438" grid="1" gridSize="10" guides="1" tooltips="1" connect="1" arrows="0" fold="1" page="1" pageScale="1" pageWidth="1169" pageHeight="827" math="0" shadow="0" extFonts="Permanent Marker^https://fonts.googleapis.com/css?family=Permanent+Marker">
      <root>
        <mxCell id="0" />
        <mxCell id="1" parent="0" />
        <mxCell id="_0ClzWE6ZuNeaNiOkw28-69" style="edgeStyle=orthogonalEdgeStyle;rounded=0;orthogonalLoop=1;jettySize=auto;html=1;exitX=0.5;exitY=0;exitDx=0;exitDy=0;entryX=0.5;entryY=1;entryDx=0;entryDy=0;endArrow=none;endFill=0;" edge="1" parent="1" source="_0ClzWE6ZuNeaNiOkw28-2" target="_0ClzWE6ZuNeaNiOkw28-66">
          <mxGeometry relative="1" as="geometry" />
        </mxCell>
        <mxCell id="_0ClzWE6ZuNeaNiOkw28-78" style="edgeStyle=orthogonalEdgeStyle;rounded=0;orthogonalLoop=1;jettySize=auto;html=1;exitX=0.5;exitY=1;exitDx=0;exitDy=0;entryX=0.5;entryY=0;entryDx=0;entryDy=0;dashed=1;endArrow=none;endFill=0;" edge="1" parent="1" source="_0ClzWE6ZuNeaNiOkw28-2" target="_0ClzWE6ZuNeaNiOkw28-15">
          <mxGeometry relative="1" as="geometry" />
        </mxCell>
        <mxCell id="_0ClzWE6ZuNeaNiOkw28-2" value="EMPLEADO" style="rounded=1;arcSize=10;whiteSpace=wrap;html=1;align=center;fillColor=#f8cecc;strokeColor=#b85450;" vertex="1" parent="1">
          <mxGeometry x="665" y="420" width="100" height="40" as="geometry" />
        </mxCell>
        <mxCell id="_0ClzWE6ZuNeaNiOkw28-79" style="edgeStyle=orthogonalEdgeStyle;rounded=0;orthogonalLoop=1;jettySize=auto;html=1;exitX=0.5;exitY=1;exitDx=0;exitDy=0;entryX=0.5;entryY=0;entryDx=0;entryDy=0;dashed=1;endArrow=none;endFill=0;" edge="1" parent="1" source="_0ClzWE6ZuNeaNiOkw28-3" target="_0ClzWE6ZuNeaNiOkw28-13">
          <mxGeometry relative="1" as="geometry" />
        </mxCell>
        <mxCell id="_0ClzWE6ZuNeaNiOkw28-3" value="CLIENTE" style="rounded=1;arcSize=10;whiteSpace=wrap;html=1;align=center;fillColor=#f8cecc;strokeColor=#b85450;" vertex="1" parent="1">
          <mxGeometry x="795" y="326" width="100" height="40" as="geometry" />
        </mxCell>
        <mxCell id="_0ClzWE6ZuNeaNiOkw28-67" style="edgeStyle=orthogonalEdgeStyle;rounded=0;orthogonalLoop=1;jettySize=auto;html=1;exitX=1;exitY=0.5;exitDx=0;exitDy=0;entryX=0;entryY=0.5;entryDx=0;entryDy=0;endArrow=none;endFill=0;" edge="1" parent="1" source="_0ClzWE6ZuNeaNiOkw28-4" target="_0ClzWE6ZuNeaNiOkw28-66">
          <mxGeometry relative="1" as="geometry" />
        </mxCell>
        <mxCell id="_0ClzWE6ZuNeaNiOkw28-76" style="edgeStyle=orthogonalEdgeStyle;rounded=0;orthogonalLoop=1;jettySize=auto;html=1;exitX=0.5;exitY=0;exitDx=0;exitDy=0;entryX=0.5;entryY=1;entryDx=0;entryDy=0;dashed=1;endArrow=none;endFill=0;" edge="1" parent="1" source="_0ClzWE6ZuNeaNiOkw28-4" target="_0ClzWE6ZuNeaNiOkw28-7">
          <mxGeometry relative="1" as="geometry" />
        </mxCell>
        <mxCell id="_0ClzWE6ZuNeaNiOkw28-4" value="MÓVIL" style="rounded=1;arcSize=10;whiteSpace=wrap;html=1;align=center;fillColor=#f8cecc;strokeColor=#b85450;" vertex="1" parent="1">
          <mxGeometry x="535" y="328" width="100" height="36" as="geometry" />
        </mxCell>
        <mxCell id="_0ClzWE6ZuNeaNiOkw28-63" style="edgeStyle=orthogonalEdgeStyle;rounded=0;orthogonalLoop=1;jettySize=auto;html=1;exitX=0.5;exitY=1;exitDx=0;exitDy=0;entryX=0.5;entryY=0;entryDx=0;entryDy=0;endArrow=none;endFill=0;" edge="1" parent="1" source="_0ClzWE6ZuNeaNiOkw28-5" target="_0ClzWE6ZuNeaNiOkw28-23">
          <mxGeometry relative="1" as="geometry" />
        </mxCell>
        <mxCell id="_0ClzWE6ZuNeaNiOkw28-5" value="PROVEEDOR" style="rounded=1;arcSize=10;whiteSpace=wrap;html=1;align=center;fillColor=#f8cecc;strokeColor=#b85450;" vertex="1" parent="1">
          <mxGeometry x="395" y="246" width="100" height="40" as="geometry" />
        </mxCell>
        <mxCell id="_0ClzWE6ZuNeaNiOkw28-64" style="edgeStyle=orthogonalEdgeStyle;rounded=0;orthogonalLoop=1;jettySize=auto;html=1;exitX=1;exitY=0.5;exitDx=0;exitDy=0;entryX=0;entryY=0.5;entryDx=0;entryDy=0;endArrow=none;endFill=0;" edge="1" parent="1" source="_0ClzWE6ZuNeaNiOkw28-6" target="_0ClzWE6ZuNeaNiOkw28-20">
          <mxGeometry relative="1" as="geometry" />
        </mxCell>
        <mxCell id="_0ClzWE6ZuNeaNiOkw28-74" style="edgeStyle=orthogonalEdgeStyle;rounded=0;orthogonalLoop=1;jettySize=auto;html=1;exitX=0.5;exitY=1;exitDx=0;exitDy=0;entryX=0.5;entryY=0;entryDx=0;entryDy=0;endArrow=none;endFill=0;dashed=1;" edge="1" parent="1" source="_0ClzWE6ZuNeaNiOkw28-6" target="_0ClzWE6ZuNeaNiOkw28-9">
          <mxGeometry relative="1" as="geometry" />
        </mxCell>
        <mxCell id="_0ClzWE6ZuNeaNiOkw28-6" value="TIENDA" style="rounded=1;arcSize=10;whiteSpace=wrap;html=1;align=center;fillColor=#f8cecc;strokeColor=#b85450;" vertex="1" parent="1">
          <mxGeometry x="400" y="420" width="90" height="40" as="geometry" />
        </mxCell>
        <mxCell id="_0ClzWE6ZuNeaNiOkw28-7" value="&lt;u&gt;Código&lt;/u&gt;&lt;br&gt;Nombre&lt;br&gt;Precio_Coste&lt;br&gt;Precio_Venta" style="ellipse;whiteSpace=wrap;html=1;align=center;rounded=0;fillColor=#fff2cc;strokeColor=#d6b656;" vertex="1" parent="1">
          <mxGeometry x="515" y="226" width="140" height="80" as="geometry" />
        </mxCell>
        <mxCell id="_0ClzWE6ZuNeaNiOkw28-9" value="&lt;u&gt;Domicilio&lt;/u&gt;&lt;br&gt;Teléfono&lt;br&gt;Precio_Alquiler" style="ellipse;whiteSpace=wrap;html=1;align=center;rounded=0;fillColor=#fff2cc;strokeColor=#d6b656;" vertex="1" parent="1">
          <mxGeometry x="385" y="500" width="120" height="60" as="geometry" />
        </mxCell>
        <mxCell id="_0ClzWE6ZuNeaNiOkw28-77" style="edgeStyle=orthogonalEdgeStyle;rounded=0;orthogonalLoop=1;jettySize=auto;html=1;exitX=1;exitY=0.5;exitDx=0;exitDy=0;entryX=0;entryY=0.5;entryDx=0;entryDy=0;dashed=1;endArrow=none;endFill=0;" edge="1" parent="1" source="_0ClzWE6ZuNeaNiOkw28-11" target="_0ClzWE6ZuNeaNiOkw28-5">
          <mxGeometry relative="1" as="geometry" />
        </mxCell>
        <mxCell id="_0ClzWE6ZuNeaNiOkw28-11" value="Nombre&lt;br&gt;&lt;u&gt;Teléfono&lt;/u&gt;" style="ellipse;whiteSpace=wrap;html=1;align=center;rounded=0;fillColor=#fff2cc;strokeColor=#d6b656;" vertex="1" parent="1">
          <mxGeometry x="255" y="236" width="120" height="60" as="geometry" />
        </mxCell>
        <mxCell id="_0ClzWE6ZuNeaNiOkw28-13" value="&lt;u&gt;DNI&lt;/u&gt;&lt;br&gt;Nombre&lt;br&gt;Apellidos&lt;br&gt;Teléfono&lt;br&gt;Correo" style="ellipse;whiteSpace=wrap;html=1;align=center;rounded=0;fillColor=#fff2cc;strokeColor=#d6b656;" vertex="1" parent="1">
          <mxGeometry x="775" y="390" width="140" height="80" as="geometry" />
        </mxCell>
        <mxCell id="_0ClzWE6ZuNeaNiOkw28-15" value="&lt;u&gt;DNI&lt;/u&gt;&lt;br&gt;Nombre&lt;br&gt;Apellidos&lt;br&gt;Teléfono&lt;br&gt;Correo&lt;br&gt;Nº_Cuenta" style="ellipse;whiteSpace=wrap;html=1;align=center;rounded=0;fillColor=#fff2cc;strokeColor=#d6b656;" vertex="1" parent="1">
          <mxGeometry x="635" y="500" width="160" height="100" as="geometry" />
        </mxCell>
        <mxCell id="_0ClzWE6ZuNeaNiOkw28-65" style="edgeStyle=orthogonalEdgeStyle;rounded=0;orthogonalLoop=1;jettySize=auto;html=1;exitX=1;exitY=0.5;exitDx=0;exitDy=0;entryX=0;entryY=0.5;entryDx=0;entryDy=0;endArrow=none;endFill=0;" edge="1" parent="1" source="_0ClzWE6ZuNeaNiOkw28-20" target="_0ClzWE6ZuNeaNiOkw28-2">
          <mxGeometry relative="1" as="geometry" />
        </mxCell>
        <mxCell id="_0ClzWE6ZuNeaNiOkw28-20" value="TRABAJA" style="shape=rhombus;perimeter=rhombusPerimeter;whiteSpace=wrap;html=1;align=center;rounded=0;fillColor=#e1d5e7;strokeColor=#9673a6;" vertex="1" parent="1">
          <mxGeometry x="515" y="410" width="120" height="60" as="geometry" />
        </mxCell>
        <mxCell id="_0ClzWE6ZuNeaNiOkw28-60" style="edgeStyle=orthogonalEdgeStyle;rounded=0;orthogonalLoop=1;jettySize=auto;html=1;exitX=0.5;exitY=1;exitDx=0;exitDy=0;entryX=0.5;entryY=0;entryDx=0;entryDy=0;endArrow=none;endFill=0;" edge="1" parent="1" source="_0ClzWE6ZuNeaNiOkw28-23" target="_0ClzWE6ZuNeaNiOkw28-6">
          <mxGeometry relative="1" as="geometry" />
        </mxCell>
        <mxCell id="_0ClzWE6ZuNeaNiOkw28-62" style="edgeStyle=orthogonalEdgeStyle;rounded=0;orthogonalLoop=1;jettySize=auto;html=1;exitX=1;exitY=0.5;exitDx=0;exitDy=0;entryX=0;entryY=0.5;entryDx=0;entryDy=0;endArrow=none;endFill=0;" edge="1" parent="1" source="_0ClzWE6ZuNeaNiOkw28-23" target="_0ClzWE6ZuNeaNiOkw28-4">
          <mxGeometry relative="1" as="geometry" />
        </mxCell>
        <mxCell id="_0ClzWE6ZuNeaNiOkw28-23" value="VENDE" style="shape=rhombus;perimeter=rhombusPerimeter;whiteSpace=wrap;html=1;align=center;rounded=0;fillColor=#e1d5e7;strokeColor=#9673a6;" vertex="1" parent="1">
          <mxGeometry x="385" y="316" width="120" height="60" as="geometry" />
        </mxCell>
        <mxCell id="_0ClzWE6ZuNeaNiOkw28-68" style="edgeStyle=orthogonalEdgeStyle;rounded=0;orthogonalLoop=1;jettySize=auto;html=1;exitX=1;exitY=0.5;exitDx=0;exitDy=0;entryX=0;entryY=0.5;entryDx=0;entryDy=0;endArrow=none;endFill=0;" edge="1" parent="1" source="_0ClzWE6ZuNeaNiOkw28-66" target="_0ClzWE6ZuNeaNiOkw28-3">
          <mxGeometry relative="1" as="geometry" />
        </mxCell>
        <mxCell id="_0ClzWE6ZuNeaNiOkw28-66" value="VENDE" style="shape=rhombus;perimeter=rhombusPerimeter;whiteSpace=wrap;html=1;align=center;rounded=0;fillColor=#e1d5e7;strokeColor=#9673a6;" vertex="1" parent="1">
          <mxGeometry x="655" y="316" width="120" height="60" as="geometry" />
        </mxCell>
        <mxCell id="_0ClzWE6ZuNeaNiOkw28-71" value="N:M:P" style="text;html=1;strokeColor=none;fillColor=none;align=center;verticalAlign=middle;whiteSpace=wrap;rounded=0;" vertex="1" parent="1">
          <mxGeometry x="685" y="286" width="60" height="30" as="geometry" />
        </mxCell>
        <mxCell id="_0ClzWE6ZuNeaNiOkw28-72" value="N:M:P" style="text;html=1;strokeColor=none;fillColor=none;align=center;verticalAlign=middle;whiteSpace=wrap;rounded=0;" vertex="1" parent="1">
          <mxGeometry x="325" y="331" width="60" height="30" as="geometry" />
        </mxCell>
        <mxCell id="_0ClzWE6ZuNeaNiOkw28-73" value="1:N" style="text;html=1;strokeColor=none;fillColor=none;align=center;verticalAlign=middle;whiteSpace=wrap;rounded=0;" vertex="1" parent="1">
          <mxGeometry x="545" y="470" width="60" height="30" as="geometry" />
        </mxCell>
      </root>
    </mxGraphModel>
  </diagram>
</mxfile>
